<?xml version="1.0" encoding="UTF-8"?>
<svg width="171px" height="209px" viewBox="0 0 171 209" version="1.1" xmlns="http://www.w3.org/2000/svg" xmlns:xlink="http://www.w3.org/1999/xlink">
    <!-- Generator: Sketch 49.3 (51167) - http://www.bohemiancoding.com/sketch -->
    <title>logo</title>
    <desc>Created with Sketch.</desc>
    <defs>
        <linearGradient x1="-0.1%" y1="50%" x2="100.1%" y2="50%" id="linearGradient-1">
            <stop stop-color="#00AEE9" offset="0%"></stop>
            <stop stop-color="#14B1D1" offset="7.5%"></stop>
            <stop stop-color="#37B7A7" offset="22.1%"></stop>
            <stop stop-color="#54BC85" offset="37%"></stop>
            <stop stop-color="#6ABF6A" offset="52.1%"></stop>
            <stop stop-color="#7AC257" offset="67.4%"></stop>
            <stop stop-color="#84C34C" offset="83.2%"></stop>
            <stop stop-color="#87C448" offset="100%"></stop>
        </linearGradient>
        <linearGradient x1="0.1%" y1="50%" x2="99.9%" y2="50%" id="linearGradient-2">
            <stop stop-color="#00AEE9" offset="0%"></stop>
            <stop stop-color="#14B1D1" offset="7.5%"></stop>
            <stop stop-color="#37B7A7" offset="22.1%"></stop>
            <stop stop-color="#54BC85" offset="37%"></stop>
            <stop stop-color="#6ABF6A" offset="52.1%"></stop>
            <stop stop-color="#7AC257" offset="67.4%"></stop>
            <stop stop-color="#84C34C" offset="83.2%"></stop>
            <stop stop-color="#87C448" offset="100%"></stop>
        </linearGradient>
        <linearGradient x1="0%" y1="50.1%" x2="100%" y2="50.1%" id="linearGradient-3">
            <stop stop-color="#00AEE9" offset="0%"></stop>
            <stop stop-color="#14B1D1" offset="7.5%"></stop>
            <stop stop-color="#37B7A7" offset="22.1%"></stop>
            <stop stop-color="#54BC85" offset="37%"></stop>
            <stop stop-color="#6ABF6A" offset="52.1%"></stop>
            <stop stop-color="#7AC257" offset="67.4%"></stop>
            <stop stop-color="#84C34C" offset="83.2%"></stop>
            <stop stop-color="#87C448" offset="100%"></stop>
        </linearGradient>
        <linearGradient x1="0.2%" y1="49.5%" x2="100.2%" y2="49.5%" id="linearGradient-4">
            <stop stop-color="#00AEE9" offset="0%"></stop>
            <stop stop-color="#14B1D1" offset="7.5%"></stop>
            <stop stop-color="#37B7A7" offset="22.1%"></stop>
            <stop stop-color="#54BC85" offset="37%"></stop>
            <stop stop-color="#6ABF6A" offset="52.1%"></stop>
            <stop stop-color="#7AC257" offset="67.4%"></stop>
            <stop stop-color="#84C34C" offset="83.2%"></stop>
            <stop stop-color="#87C448" offset="100%"></stop>
        </linearGradient>
        <linearGradient x1="0%" y1="50%" x2="99.9%" y2="50%" id="linearGradient-5">
            <stop stop-color="#00AEE9" offset="0%"></stop>
            <stop stop-color="#14B1D1" offset="7.5%"></stop>
            <stop stop-color="#37B7A7" offset="22.1%"></stop>
            <stop stop-color="#54BC85" offset="37%"></stop>
            <stop stop-color="#6ABF6A" offset="52.1%"></stop>
            <stop stop-color="#7AC257" offset="67.4%"></stop>
            <stop stop-color="#84C34C" offset="83.2%"></stop>
            <stop stop-color="#87C448" offset="100%"></stop>
        </linearGradient>
        <linearGradient x1="0.2%" y1="50.1%" x2="100.1%" y2="50.1%" id="linearGradient-6">
            <stop stop-color="#00AEE9" offset="0%"></stop>
            <stop stop-color="#14B1D1" offset="7.5%"></stop>
            <stop stop-color="#37B7A7" offset="22.1%"></stop>
            <stop stop-color="#54BC85" offset="37%"></stop>
            <stop stop-color="#6ABF6A" offset="52.1%"></stop>
            <stop stop-color="#7AC257" offset="67.4%"></stop>
            <stop stop-color="#84C34C" offset="83.2%"></stop>
            <stop stop-color="#87C448" offset="100%"></stop>
        </linearGradient>
        <linearGradient x1="0.1%" y1="50%" x2="100.1%" y2="50%" id="linearGradient-7">
            <stop stop-color="#00AEE9" offset="0%"></stop>
            <stop stop-color="#14B1D1" offset="7.5%"></stop>
            <stop stop-color="#37B7A7" offset="22.1%"></stop>
            <stop stop-color="#54BC85" offset="37%"></stop>
            <stop stop-color="#6ABF6A" offset="52.1%"></stop>
            <stop stop-color="#7AC257" offset="67.4%"></stop>
            <stop stop-color="#84C34C" offset="83.2%"></stop>
            <stop stop-color="#87C448" offset="100%"></stop>
        </linearGradient>
        <linearGradient x1="0.1%" y1="50.2%" x2="99.9%" y2="50.2%" id="linearGradient-8">
            <stop stop-color="#00AEE9" offset="0%"></stop>
            <stop stop-color="#14B1D1" offset="7.5%"></stop>
            <stop stop-color="#37B7A7" offset="22.1%"></stop>
            <stop stop-color="#54BC85" offset="37%"></stop>
            <stop stop-color="#6ABF6A" offset="52.1%"></stop>
            <stop stop-color="#7AC257" offset="67.4%"></stop>
            <stop stop-color="#84C34C" offset="83.2%"></stop>
            <stop stop-color="#87C448" offset="100%"></stop>
        </linearGradient>
        <linearGradient x1="-0.2%" y1="50.2%" x2="99.7%" y2="50.2%" id="linearGradient-9">
            <stop stop-color="#00AEE9" offset="0%"></stop>
            <stop stop-color="#14B1D1" offset="7.5%"></stop>
            <stop stop-color="#37B7A7" offset="22.1%"></stop>
            <stop stop-color="#54BC85" offset="37%"></stop>
            <stop stop-color="#6ABF6A" offset="52.1%"></stop>
            <stop stop-color="#7AC257" offset="67.4%"></stop>
            <stop stop-color="#84C34C" offset="83.2%"></stop>
            <stop stop-color="#87C448" offset="100%"></stop>
        </linearGradient>
        <linearGradient x1="0.1%" y1="50.1%" x2="100%" y2="50.1%" id="linearGradient-10">
            <stop stop-color="#00AEE9" offset="0%"></stop>
            <stop stop-color="#14B1D1" offset="7.5%"></stop>
            <stop stop-color="#37B7A7" offset="22.1%"></stop>
            <stop stop-color="#54BC85" offset="37%"></stop>
            <stop stop-color="#6ABF6A" offset="52.1%"></stop>
            <stop stop-color="#7AC257" offset="67.4%"></stop>
            <stop stop-color="#84C34C" offset="83.2%"></stop>
            <stop stop-color="#87C448" offset="100%"></stop>
        </linearGradient>
        <linearGradient x1="0.1%" y1="50%" x2="100%" y2="50%" id="linearGradient-11">
            <stop stop-color="#00AEE9" offset="0%"></stop>
            <stop stop-color="#14B1D1" offset="7.5%"></stop>
            <stop stop-color="#37B7A7" offset="22.1%"></stop>
            <stop stop-color="#54BC85" offset="37%"></stop>
            <stop stop-color="#6ABF6A" offset="52.1%"></stop>
            <stop stop-color="#7AC257" offset="67.4%"></stop>
            <stop stop-color="#84C34C" offset="83.2%"></stop>
            <stop stop-color="#87C448" offset="100%"></stop>
        </linearGradient>
        <linearGradient x1="-0.1%" y1="49.9%" x2="100%" y2="49.9%" id="linearGradient-12">
            <stop stop-color="#00AEE9" offset="0%"></stop>
            <stop stop-color="#14B1D1" offset="7.5%"></stop>
            <stop stop-color="#37B7A7" offset="22.1%"></stop>
            <stop stop-color="#54BC85" offset="37%"></stop>
            <stop stop-color="#6ABF6A" offset="52.1%"></stop>
            <stop stop-color="#7AC257" offset="67.4%"></stop>
            <stop stop-color="#84C34C" offset="83.2%"></stop>
            <stop stop-color="#87C448" offset="100%"></stop>
        </linearGradient>
        <linearGradient x1="-0.1%" y1="50%" x2="100%" y2="50%" id="linearGradient-13">
            <stop stop-color="#00AEE9" offset="0%"></stop>
            <stop stop-color="#14B1D1" offset="7.5%"></stop>
            <stop stop-color="#37B7A7" offset="22.1%"></stop>
            <stop stop-color="#54BC85" offset="37%"></stop>
            <stop stop-color="#6ABF6A" offset="52.1%"></stop>
            <stop stop-color="#7AC257" offset="67.4%"></stop>
            <stop stop-color="#84C34C" offset="83.2%"></stop>
            <stop stop-color="#87C448" offset="100%"></stop>
        </linearGradient>
        <linearGradient x1="0.1%" y1="49.9%" x2="100.2%" y2="49.9%" id="linearGradient-14">
            <stop stop-color="#00AEE9" offset="0%"></stop>
            <stop stop-color="#14B1D1" offset="7.5%"></stop>
            <stop stop-color="#37B7A7" offset="22.1%"></stop>
            <stop stop-color="#54BC85" offset="37%"></stop>
            <stop stop-color="#6ABF6A" offset="52.1%"></stop>
            <stop stop-color="#7AC257" offset="67.4%"></stop>
            <stop stop-color="#84C34C" offset="83.2%"></stop>
            <stop stop-color="#87C448" offset="100%"></stop>
        </linearGradient>
        <linearGradient x1="-0.4%" y1="50.5%" x2="100%" y2="50.5%" id="linearGradient-15">
            <stop stop-color="#00AEE9" offset="0%"></stop>
            <stop stop-color="#14B1D1" offset="7.5%"></stop>
            <stop stop-color="#37B7A7" offset="22.1%"></stop>
            <stop stop-color="#54BC85" offset="37%"></stop>
            <stop stop-color="#6ABF6A" offset="52.1%"></stop>
            <stop stop-color="#7AC257" offset="67.4%"></stop>
            <stop stop-color="#84C34C" offset="83.2%"></stop>
            <stop stop-color="#87C448" offset="100%"></stop>
        </linearGradient>
        <linearGradient x1="0.2%" y1="50.3%" x2="100%" y2="50.3%" id="linearGradient-16">
            <stop stop-color="#00AEE9" offset="0%"></stop>
            <stop stop-color="#14B1D1" offset="7.5%"></stop>
            <stop stop-color="#37B7A7" offset="22.1%"></stop>
            <stop stop-color="#54BC85" offset="37%"></stop>
            <stop stop-color="#6ABF6A" offset="52.1%"></stop>
            <stop stop-color="#7AC257" offset="67.4%"></stop>
            <stop stop-color="#84C34C" offset="83.2%"></stop>
            <stop stop-color="#87C448" offset="100%"></stop>
        </linearGradient>
        <linearGradient x1="-0.3%" y1="49.8%" x2="100%" y2="49.8%" id="linearGradient-17">
            <stop stop-color="#00AEE9" offset="0%"></stop>
            <stop stop-color="#14B1D1" offset="7.5%"></stop>
            <stop stop-color="#37B7A7" offset="22.1%"></stop>
            <stop stop-color="#54BC85" offset="37%"></stop>
            <stop stop-color="#6ABF6A" offset="52.1%"></stop>
            <stop stop-color="#7AC257" offset="67.4%"></stop>
            <stop stop-color="#84C34C" offset="83.2%"></stop>
            <stop stop-color="#87C448" offset="100%"></stop>
        </linearGradient>
    </defs>
    <g id="Page-1" stroke="none" stroke-width="1" fill="none" fill-rule="evenodd">
        <g id="Extra-large:-Desktops---12-col" transform="translate(-81.000000, -54.000000)" fill-rule="nonzero">
            <g id="Group-4" transform="translate(81.000000, 54.000000)">
                <g id="logo">
                    <path d="M25.2046532,153.860399 L33.1753555,165.876777 L24.3429556,165.876777 L17.5570875,155.561347 L11.5252047,155.561347 L11.5252047,165.876777 L3.55450237,165.876777 L3.55450237,127.962085 L18.4726411,127.962085 C26.1202068,127.962085 32.2059457,133.94284 32.2059457,141.789151 C32.2608145,146.827294 29.5628249,151.479021 25.2046532,153.860399 Z M17.9340801,148.867292 C22.1348557,148.867292 24.2890995,145.904349 24.2890995,141.789151 C24.2890995,137.673953 22.1348557,134.71101 17.9340801,134.71101 L11.5252047,134.71101 L11.5252047,148.867292 L17.9340801,148.867292 Z" id="Shape" fill="#03A9F4"></path>
                    <polygon id="Shape" fill="#03A9F4" points="66.3507109 165.876777 37.9146919 165.876777 37.9146919 127.962085 65.3838863 127.962085 65.3838863 134.71101 46.3317536 134.71101 46.3317536 142.941406 61.971564 142.941406 61.971564 149.690331 46.3317536 149.690331 46.3317536 159.127852 66.3507109 159.127852"></polygon>
                    <path d="M93.4883787,158.743767 L78.367554,158.743767 L75.5083435,165.876777 L67.535545,165.876777 L82.6563697,127.962085 L89.1445781,127.962085 L104.265403,165.876777 L96.2926044,165.876777 L93.4883787,158.743767 Z M90.7391378,151.994842 L85.9004739,139.978464 L81.06181,151.994842 L90.7391378,151.994842 Z" id="Shape" fill="#03A9F4"></path>
                    <path d="M122.560361,167.061611 C112.062917,167.061611 103.080569,158.459716 103.080569,147.511848 C103.080569,136.563981 112.062917,127.962085 122.560361,127.962085 C128.51252,127.962085 134.410568,130.922478 137.440758,136.452268 L132.029705,140.473934 C130.081726,137.457684 126.997425,134.832431 122.45214,134.832431 C115.796544,134.832431 111.034817,140.362221 111.034817,147.567705 C111.034817,154.773189 115.796544,160.302979 122.45214,160.302979 C126.997425,160.302979 130.027615,157.733582 132.029705,154.717332 L137.440758,158.738998 C134.410568,164.101219 128.45841,167.061611 122.560361,167.061611 Z" id="Shape" fill="#03A9F4"></path>
                    <polygon id="Shape" fill="#03A9F4" points="159.941429 134.701257 159.941429 165.876777 151.725834 165.876777 151.725834 134.701257 140.995261 134.701257 140.995261 127.962085 170.616114 127.962085 170.616114 134.701257"></polygon>
                    <path d="M21.8494608,208.530806 C11.352017,208.530806 2.36966825,199.92891 2.36966825,188.981043 C2.36966825,178.033175 11.352017,169.43128 21.8494608,169.43128 C27.8016196,169.43128 33.6996679,172.391672 36.7298578,177.921462 L31.3188043,181.943128 C29.3708251,178.926879 26.2865246,176.301625 21.7412397,176.301625 C15.0315334,176.301625 10.3239169,181.831415 10.3239169,189.036899 C10.3239169,196.242383 15.0856439,201.772173 21.7412397,201.772173 C26.2865246,201.772173 29.3167146,199.202776 31.3188043,196.186527 L36.7298578,200.208192 C33.7537784,205.570413 27.8016196,208.530806 21.8494608,208.530806 Z" id="Shape" fill="#03A9F4"></path>
                    <path d="M79.3838863,188.981043 C79.3838863,200.7109 70.5437072,208.530806 59.2417062,208.530806 C47.9397051,208.530806 39.0995261,200.7109 39.0995261,188.981043 C39.0995261,177.251185 47.9397051,169.43128 59.2417062,169.43128 C70.5437072,169.43128 79.3838863,177.251185 79.3838863,188.981043 Z M47.3242496,188.981043 C47.3242496,196.354096 52.1359926,201.716317 59.2417062,201.716317 C66.4033702,201.716317 71.1591627,196.354096 71.1591627,188.981043 C71.1591627,181.663846 66.3474197,176.245768 59.2417062,176.245768 C52.1359926,176.301625 47.3242496,181.663846 47.3242496,188.981043 Z" id="Shape" fill="#03A9F4"></path>
                    <polygon id="Shape" fill="#03A9F4" points="108.750708 207.345972 91.2050791 182.325567 91.2050791 207.345972 82.9383886 207.345972 82.9383886 169.43128 91.486259 169.43128 109.031888 194.451684 109.031888 169.43128 117.298578 169.43128 117.298578 207.345972"></polygon>
                    <polygon id="Shape" fill="#03A9F4" points="129.987611 185.453118 144.589094 185.453118 144.589094 192.147173 129.987611 192.147173 129.987611 207.345972 122.037915 207.345972 122.037915 169.43128 148.104265 169.43128 148.104265 176.180205 129.987611 176.180205"></polygon>
                    <path d="M100.7109,55.0947867 C96.5790552,51.5035481 92.2272891,48.1408198 87.6777251,45.0236967 C87.911504,48.3077478 87.9699488,51.6465331 87.9699488,55.0947867 C87.9699488,58.5430404 87.8530593,61.8818257 87.6777251,65.1658768 C92.2501313,62.0763689 96.6036681,58.7122723 100.7109,55.0947867 Z" id="Shape" fill="url(#linearGradient-1)"></path>
                    <path d="M49.4359201,20.9531241 L49.4359201,21.1198598 C53.3517683,22.5093235 57.3227694,24.17668 61.3489232,26.0663507 C67.1806535,23.286294 73.2088167,20.9455846 79.3838863,19.0634534 C78.045885,13.6991008 76.0835477,8.51286441 73.5376903,3.61261655 C67.2831984,1.21999744 60.6484346,-0.00419636015 53.958449,1.08071901e-05 C53.1311571,1.08071901e-05 52.2487125,1.08071901e-05 51.4214206,0.0555893571 C49.0498505,3.4458809 46.8437388,8.00332199 45.0236967,13.3944413 C47.743662,14.9235078 49.4312244,17.8145103 49.4359201,20.9531241 Z" id="Shape" fill="url(#linearGradient-2)"></path>
                    <path d="M87.0052517,40.8845722 C92.1123384,44.6650295 96.9631635,48.8195105 101.522138,53.3175355 C103.473165,51.2699186 105.325696,49.1196905 107.072713,46.875 C107.339567,46.5359192 107.553051,46.1968384 107.819905,45.8577575 C106.147585,35.8977406 101.961251,26.6024648 95.7047094,18.957346 C91.7918094,19.4285149 87.9195726,20.2221098 84.1232227,21.3309117 C85.5210656,27.7680866 86.4841782,34.3025033 87.0052517,40.8845722 Z" id="Shape" fill="url(#linearGradient-3)"></path>
                    <path d="M108.794102,60.4265403 C108.95208,58.687925 109.004739,56.8913559 109.004739,55.0947867 C109.004739,53.2982176 108.899421,51.5016485 108.794102,49.7630332 C107.368955,51.6249113 105.857375,53.4045333 104.265403,55.0947867 C105.897841,56.833402 107.372301,58.6299712 108.794102,60.4265403 Z" id="Shape" fill="url(#linearGradient-4)"></path>
                    <path d="M51.4986472,73.7042274 C52.7755214,74.4126129 54.0523957,75.1209984 55.3847862,75.8293839 C56.9477381,73.292688 59.7481816,71.7427139 62.7684504,71.7427139 C65.7887192,71.7427139 68.5891627,73.292688 70.1521146,75.8293839 C71.4289888,75.1209984 72.7058631,74.4671041 74.0382536,73.7042274 C77.7578439,71.5790709 81.3664016,69.344932 84.8084104,67.056302 C85.1415081,63.0239538 85.3080569,58.828132 85.3080569,54.577819 C85.3080569,50.327506 85.1415081,46.1316843 84.8084104,42.099336 C81.3664016,39.810706 77.8133601,37.5765671 74.0382536,35.4514106 C70.3186634,33.3262541 66.5435569,31.4190624 62.8239667,29.6208531 C59.1043764,31.3645712 55.3292699,33.3262541 51.5541634,35.4514106 C47.7790569,37.5765671 44.2260155,39.810706 40.7840066,42.099336 C40.450909,46.1316843 40.2843602,50.327506 40.2843602,54.577819 C40.2843602,58.828132 40.450909,63.0239538 40.7840066,67.056302 C44.1704992,69.344932 47.7790569,71.5790709 51.4986472,73.7042274 Z" id="Shape" fill="url(#linearGradient-5)"></path>
                    <path d="M23.6966825,55.0947867 C27.8187947,58.6964255 32.1712391,62.059678 36.7298578,65.1658768 C36.4960789,61.8818257 36.4376342,58.5430404 36.4376342,55.0947867 C36.4376342,51.6465331 36.5545236,48.3077478 36.7298578,45.0236967 C32.1989247,48.1632047 27.8484572,51.5249296 23.6966825,55.0947867 Z" id="Shape" fill="url(#linearGradient-6)"></path>
                    <path d="M32.0579743,90.4769922 C34.8290637,90.0032128 37.5747525,89.3852922 40.2843602,88.6256342 C38.8437445,82.2361896 37.8540271,75.7490659 37.3228613,69.2144251 C32.0597458,65.4822206 27.0737461,61.3568336 22.4056815,56.8720379 C12.1501205,67.3630671 6.7207058,77.4613839 8.69503841,84.0252898 C9.517677,85.3717321 10.3951582,86.7181743 11.3274819,87.952413 C15.166462,91.1502134 22.4605241,92.0478415 32.0579743,90.4769922 Z" id="Shape" fill="url(#linearGradient-7)"></path>
                    <path d="M69.0464803,86.492891 C67.4500006,88.3369592 65.1782979,89.3877906 62.7962085,89.3841064 C60.4165059,89.3760613 58.1491489,88.32724 56.5459368,86.492891 C52.7846364,88.1343185 48.9378167,89.5538219 45.0236967,90.7446784 C47.0890039,98.8514198 49.8608635,105.540899 53.0131745,110.132829 C53.8284273,110.18952 54.6436802,110.18952 55.5132832,110.18952 C62.0887005,110.199032 68.6099891,108.95006 74.7532501,106.504637 C77.2583582,101.498305 79.209389,96.2110001 80.5687204,90.7446784 C76.6546003,89.5538219 72.8077806,88.1343185 69.0464803,86.492891 Z" id="Shape" fill="url(#linearGradient-8)"></path>
                    <path d="M22.5345388,53.3175355 C27.2722424,48.8550885 32.3071719,44.7281178 37.6036911,40.9658334 C37.9360989,36.8673141 38.4347105,32.937227 39.0995261,29.2317164 C35.7712256,27.9377171 33.5701938,24.7034303 33.5593966,21.0908218 C33.5593966,20.6978131 33.6147979,20.3609485 33.6147979,19.9679398 C33.1715875,19.9117957 32.6729758,19.7995075 32.2297655,19.7433634 C29.3921679,19.2532894 26.520889,18.9904709 23.6425647,18.957346 C18.2132378,18.957346 13.9473381,20.080228 11.3434772,22.1575597 C10.4016552,23.448874 9.5152345,24.7401883 8.68421507,26.0876467 C7.1883801,31.0844717 10.0138462,38.5516371 16.7728042,46.9171081 C18.586282,49.1471273 20.5092894,51.2833017 22.5345388,53.3175355 Z" id="Shape" fill="url(#linearGradient-2)"></path>
                    <path d="M92.1855423,94.3953114 C89.3203275,93.9067215 86.4831331,93.2462603 83.6874217,92.4170616 C82.5792312,96.8766243 81.1401671,101.234803 79.3838863,105.450237 C84.6466505,102.675173 89.4493123,98.9999215 93.6018957,94.5698629 C93.1116195,94.5116791 92.6213434,94.4534953 92.1855423,94.3953114 Z" id="Shape" fill="url(#linearGradient-9)"></path>
                    <path d="M32.857771,16.246835 C33.4624029,16.3604493 34.1220013,16.4740635 34.7815996,16.5876777 C36.3012787,13.8361347 39.1365342,12.1431328 42.2020814,12.1567227 C42.5328337,12.1473102 42.8637709,12.1663113 43.191479,12.2135298 C44.5491722,7.95089365 46.3555662,3.85518293 48.5781991,0 C36.467258,1.56272821 25.2081949,7.26080805 16.5876777,16.1900279 C20.9850002,15.1674998 26.4266869,15.1674998 32.857771,16.246835 Z" id="Shape" fill="url(#linearGradient-10)"></path>
                    <path d="M18.957346,54.5023697 C16.8921609,52.3867984 14.9858363,50.2169817 13.2913255,48.1014104 C8.63142082,42.2429053 5.77193386,36.7641181 4.81877154,31.9905213 C-1.60625718,46.2768017 -1.60625718,62.7279376 4.81877154,77.014218 C6.14260809,70.3962771 11.1202336,62.5306915 18.957346,54.5023697 Z" id="Shape" fill="url(#linearGradient-5)"></path>
                    <path d="M41.43255,92.4170616 C38.4643573,93.194609 35.6060976,93.8610782 32.857771,94.305391 C29.8610322,94.817052 26.82751,95.0771229 23.7882934,95.0829384 C21.3688952,95.1156563 18.9535245,94.8734662 16.5876777,94.3609301 C25.2081949,103.090837 36.467258,108.661728 48.5781991,110.189573 C45.7749059,105.524289 43.301412,99.5260664 41.43255,92.4170616 Z" id="Shape" fill="url(#linearGradient-11)"></path>
                    <path d="M107.072713,63.3145735 C105.325692,61.0698874 103.47316,58.9196595 101.522138,56.8720379 C96.952125,61.3565852 92.102199,65.5102963 87.0052517,69.3050012 C86.4924999,75.8881227 85.5292944,82.4231694 84.1232227,88.8586618 C86.8985099,89.6498503 89.5670552,90.2714985 92.1288587,90.7236063 C93.3563896,90.9496601 94.5305495,91.1192005 95.7047094,91.2322275 C101.961251,83.5871086 106.147585,74.2918328 107.819905,64.3318159 C107.553051,63.9927351 107.339567,63.6536543 107.072713,63.3145735 Z" id="Shape" fill="url(#linearGradient-12)"></path>
                    <path d="M66.3507109,27.9703999 C69.3686846,29.4296167 72.3866583,30.9969236 75.404632,32.6723206 C78.4226057,34.3477176 81.3288026,36.0771597 84.1232227,37.9146919 C83.5613869,32.7314234 82.6654295,27.5871343 81.4405795,22.5118483 C76.301565,24.0359211 71.262434,25.8587572 66.3507109,27.9703999 Z" id="Shape" fill="url(#linearGradient-13)"></path>
                    <path d="M40.2843602,36.7298578 C43.0787803,34.9956046 45.9849772,33.3139046 49.0029509,31.6322046 C52.0209246,30.0030576 55.0388983,28.479017 58.056872,27.0600826 C55.0947867,25.7988075 52.1327014,24.6951919 49.2265045,23.6966825 C47.9083413,26.6156058 44.8858836,28.5309241 41.513905,28.5841232 C41.0109094,31.2117795 40.6196906,33.9445421 40.2843602,36.7298578 Z" id="Shape" fill="url(#linearGradient-14)"></path>
                    <path d="M53.3175355,84.0026607 C52.9867624,83.0845846 52.8225999,82.1144578 52.8328307,81.1382722 C52.8419721,80.7220286 52.8779514,80.3068152 52.9405429,79.8952357 C51.5402844,79.1386048 50.0861698,78.3279288 48.6859112,77.5172528 C45.777682,75.8418558 42.977165,74.1124137 40.2843602,72.2748815 C40.8257628,77.4581504 41.6891401,82.6024397 42.8694528,87.6777251 C46.4136671,86.6365033 49.9011336,85.4098032 53.3175355,84.0026607 Z" id="Shape" fill="url(#linearGradient-15)"></path>
                    <path d="M83.7418968,18.957346 C86.9850733,18.028769 90.2777121,17.3098645 93.6018957,16.8045447 C89.4349715,12.3925862 84.635216,8.71955896 79.3838863,5.92417062 C81.174526,10.1310587 82.6322867,14.4906742 83.7418968,18.957346 Z" id="Shape" fill="url(#linearGradient-16)"></path>
                    <path d="M81.5381301,87.6777251 C82.7184401,82.6024392 83.5818173,77.45815 84.1232227,72.2748815 C81.4304179,74.0583687 78.6299009,75.8418558 75.7216717,77.5172528 C74.3214132,78.3279288 72.8672986,79.1386048 71.4670401,79.8952357 C71.5296346,80.3068148 71.5656139,80.7220285 71.5747523,81.1382722 C71.5758343,82.1137107 71.4119389,83.0822592 71.0900474,84.0026607 C74.5906937,85.3537873 78.145196,86.5968238 81.5381301,87.6777251 Z" id="Shape" fill="url(#linearGradient-17)"></path>
                    <path d="M100.7109,55.0947867 C96.5790552,51.5035481 92.2272891,48.1408198 87.6777251,45.0236967 C87.911504,48.3077478 87.9699488,51.6465331 87.9699488,55.0947867 C87.9699488,58.5430404 87.8530593,61.8818257 87.6777251,65.1658768 C92.2501313,62.0763689 96.6036681,58.7122723 100.7109,55.0947867 Z" id="Shape" fill="#03A9F4"></path>
                    <path d="M49.4359201,20.9531241 L49.4359201,21.1198598 C53.3517683,22.5093235 57.3227694,24.17668 61.3489232,26.0663507 C67.1806535,23.286294 73.2088167,20.9455846 79.3838863,19.0634534 C78.045885,13.6991008 76.0835477,8.51286441 73.5376903,3.61261655 C67.2831984,1.21999744 60.6484346,-0.00419636015 53.958449,1.08071901e-05 C53.1311571,1.08071901e-05 52.2487125,1.08071901e-05 51.4214206,0.0555893571 C49.0498505,3.4458809 46.8437388,8.00332199 45.0236967,13.3944413 C47.743662,14.9235078 49.4312244,17.8145103 49.4359201,20.9531241 Z" id="Shape" fill="#03A9F4"></path>
                    <path d="M87.0052517,40.8845722 C92.1123384,44.6650295 96.9631635,48.8195105 101.522138,53.3175355 C103.473165,51.2699186 105.325696,49.1196905 107.072713,46.875 C107.339567,46.5359192 107.553051,46.1968384 107.819905,45.8577575 C106.147585,35.8977406 101.961251,26.6024648 95.7047094,18.957346 C91.7918094,19.4285149 87.9195726,20.2221098 84.1232227,21.3309117 C85.5210656,27.7680866 86.4841782,34.3025033 87.0052517,40.8845722 Z" id="Shape" fill="#03A9F4"></path>
                    <path d="M108.794102,60.4265403 C108.95208,58.687925 109.004739,56.8913559 109.004739,55.0947867 C109.004739,53.2982176 108.899421,51.5016485 108.794102,49.7630332 C107.368955,51.6249113 105.857375,53.4045333 104.265403,55.0947867 C105.897841,56.833402 107.372301,58.6299712 108.794102,60.4265403 Z" id="Shape" fill="#03A9F4"></path>
                    <path d="M51.4986472,73.7042274 C52.7755214,74.4126129 54.0523957,75.1209984 55.3847862,75.8293839 C56.9477381,73.292688 59.7481816,71.7427139 62.7684504,71.7427139 C65.7887192,71.7427139 68.5891627,73.292688 70.1521146,75.8293839 C71.4289888,75.1209984 72.7058631,74.4671041 74.0382536,73.7042274 C77.7578439,71.5790709 81.3664016,69.344932 84.8084104,67.056302 C85.1415081,63.0239538 85.3080569,58.828132 85.3080569,54.577819 C85.3080569,50.327506 85.1415081,46.1316843 84.8084104,42.099336 C81.3664016,39.810706 77.8133601,37.5765671 74.0382536,35.4514106 C70.3186634,33.3262541 66.5435569,31.4190624 62.8239667,29.6208531 C59.1043764,31.3645712 55.3292699,33.3262541 51.5541634,35.4514106 C47.7790569,37.5765671 44.2260155,39.810706 40.7840066,42.099336 C40.450909,46.1316843 40.2843602,50.327506 40.2843602,54.577819 C40.2843602,58.828132 40.450909,63.0239538 40.7840066,67.056302 C44.1704992,69.344932 47.7790569,71.5790709 51.4986472,73.7042274 Z" id="Shape" fill="#03A9F4"></path>
                    <path d="M23.6966825,55.0947867 C27.8187947,58.6964255 32.1712391,62.059678 36.7298578,65.1658768 C36.4960789,61.8818257 36.4376342,58.5430404 36.4376342,55.0947867 C36.4376342,51.6465331 36.5545236,48.3077478 36.7298578,45.0236967 C32.1989247,48.1632047 27.8484572,51.5249296 23.6966825,55.0947867 Z" id="Shape" fill="#03A9F4"></path>
                    <path d="M32.0579743,90.4769922 C34.8290637,90.0032128 37.5747525,89.3852922 40.2843602,88.6256342 C38.8437445,82.2361896 37.8540271,75.7490659 37.3228613,69.2144251 C32.0597458,65.4822206 27.0737461,61.3568336 22.4056815,56.8720379 C12.1501205,67.3630671 6.7207058,77.4613839 8.69503841,84.0252898 C9.517677,85.3717321 10.3951582,86.7181743 11.3274819,87.952413 C15.166462,91.1502134 22.4605241,92.0478415 32.0579743,90.4769922 Z" id="Shape" fill="#03A9F4"></path>
                    <path d="M69.0464803,86.492891 C67.4500006,88.3369592 65.1782979,89.3877906 62.7962085,89.3841064 C60.4165059,89.3760613 58.1491489,88.32724 56.5459368,86.492891 C52.7846364,88.1343185 48.9378167,89.5538219 45.0236967,90.7446784 C47.0890039,98.8514198 49.8608635,105.540899 53.0131745,110.132829 C53.8284273,110.18952 54.6436802,110.18952 55.5132832,110.18952 C62.0887005,110.199032 68.6099891,108.95006 74.7532501,106.504637 C77.2583582,101.498305 79.209389,96.2110001 80.5687204,90.7446784 C76.6546003,89.5538219 72.8077806,88.1343185 69.0464803,86.492891 Z" id="Shape" fill="#03A9F4"></path>
                    <path d="M22.5345388,53.3175355 C27.2722424,48.8550885 32.3071719,44.7281178 37.6036911,40.9658334 C37.9360989,36.8673141 38.4347105,32.937227 39.0995261,29.2317164 C35.7712256,27.9377171 33.5701938,24.7034303 33.5593966,21.0908218 C33.5593966,20.6978131 33.6147979,20.3609485 33.6147979,19.9679398 C33.1715875,19.9117957 32.6729758,19.7995075 32.2297655,19.7433634 C29.3921679,19.2532894 26.520889,18.9904709 23.6425647,18.957346 C18.2132378,18.957346 13.9473381,20.080228 11.3434772,22.1575597 C10.4016552,23.448874 9.5152345,24.7401883 8.68421507,26.0876467 C7.1883801,31.0844717 10.0138462,38.5516371 16.7728042,46.9171081 C18.586282,49.1471273 20.5092894,51.2833017 22.5345388,53.3175355 Z" id="Shape" fill="#03A9F4"></path>
                    <path d="M92.1855423,94.3953114 C89.3203275,93.9067215 86.4831331,93.2462603 83.6874217,92.4170616 C82.5792312,96.8766243 81.1401671,101.234803 79.3838863,105.450237 C84.6466505,102.675173 89.4493123,98.9999215 93.6018957,94.5698629 C93.1116195,94.5116791 92.6213434,94.4534953 92.1855423,94.3953114 Z" id="Shape" fill="#03A9F4"></path>
                    <path d="M32.857771,16.246835 C33.4624029,16.3604493 34.1220013,16.4740635 34.7815996,16.5876777 C36.3012787,13.8361347 39.1365342,12.1431328 42.2020814,12.1567227 C42.5328337,12.1473102 42.8637709,12.1663113 43.191479,12.2135298 C44.5491722,7.95089365 46.3555662,3.85518293 48.5781991,0 C36.467258,1.56272821 25.2081949,7.26080805 16.5876777,16.1900279 C20.9850002,15.1674998 26.4266869,15.1674998 32.857771,16.246835 Z" id="Shape" fill="#03A9F4"></path>
                    <path d="M18.957346,54.5023697 C16.8921609,52.3867984 14.9858363,50.2169817 13.2913255,48.1014104 C8.63142082,42.2429053 5.77193386,36.7641181 4.81877154,31.9905213 C-1.60625718,46.2768017 -1.60625718,62.7279376 4.81877154,77.014218 C6.14260809,70.3962771 11.1202336,62.5306915 18.957346,54.5023697 Z" id="Shape" fill="#03A9F4"></path>
                    <path d="M41.43255,92.4170616 C38.4643573,93.194609 35.6060976,93.8610782 32.857771,94.305391 C29.8610322,94.817052 26.82751,95.0771229 23.7882934,95.0829384 C21.3688952,95.1156563 18.9535245,94.8734662 16.5876777,94.3609301 C25.2081949,103.090837 36.467258,108.661728 48.5781991,110.189573 C45.7749059,105.524289 43.301412,99.5260664 41.43255,92.4170616 Z" id="Shape" fill="#03A9F4"></path>
                    <path d="M107.072713,63.3145735 C105.325692,61.0698874 103.47316,58.9196595 101.522138,56.8720379 C96.952125,61.3565852 92.102199,65.5102963 87.0052517,69.3050012 C86.4924999,75.8881227 85.5292944,82.4231694 84.1232227,88.8586618 C86.8985099,89.6498503 89.5670552,90.2714985 92.1288587,90.7236063 C93.3563896,90.9496601 94.5305495,91.1192005 95.7047094,91.2322275 C101.961251,83.5871086 106.147585,74.2918328 107.819905,64.3318159 C107.553051,63.9927351 107.339567,63.6536543 107.072713,63.3145735 Z" id="Shape" fill="#03A9F4"></path>
                    <path d="M66.3507109,27.9703999 C69.3686846,29.4296167 72.3866583,30.9969236 75.404632,32.6723206 C78.4226057,34.3477176 81.3288026,36.0771597 84.1232227,37.9146919 C83.5613869,32.7314234 82.6654295,27.5871343 81.4405795,22.5118483 C76.301565,24.0359211 71.262434,25.8587572 66.3507109,27.9703999 Z" id="Shape" fill="#03A9F4"></path>
                    <path d="M40.2843602,36.7298578 C43.0787803,34.9956046 45.9849772,33.3139046 49.0029509,31.6322046 C52.0209246,30.0030576 55.0388983,28.479017 58.056872,27.0600826 C55.0947867,25.7988075 52.1327014,24.6951919 49.2265045,23.6966825 C47.9083413,26.6156058 44.8858836,28.5309241 41.513905,28.5841232 C41.0109094,31.2117795 40.6196906,33.9445421 40.2843602,36.7298578 Z" id="Shape" fill="#03A9F4"></path>
                    <path d="M53.3175355,84.0026607 C52.9867624,83.0845846 52.8225999,82.1144578 52.8328307,81.1382722 C52.8419721,80.7220286 52.8779514,80.3068152 52.9405429,79.8952357 C51.5402844,79.1386048 50.0861698,78.3279288 48.6859112,77.5172528 C45.777682,75.8418558 42.977165,74.1124137 40.2843602,72.2748815 C40.8257628,77.4581504 41.6891401,82.6024397 42.8694528,87.6777251 C46.4136671,86.6365033 49.9011336,85.4098032 53.3175355,84.0026607 Z" id="Shape" fill="#03A9F4"></path>
                    <path d="M83.7418968,18.957346 C86.9850733,18.028769 90.2777121,17.3098645 93.6018957,16.8045447 C89.4349715,12.3925862 84.635216,8.71955896 79.3838863,5.92417062 C81.174526,10.1310587 82.6322867,14.4906742 83.7418968,18.957346 Z" id="Shape" fill="#03A9F4"></path>
                    <path d="M81.5381301,87.6777251 C82.7184401,82.6024392 83.5818173,77.45815 84.1232227,72.2748815 C81.4304179,74.0583687 78.6299009,75.8418558 75.7216717,77.5172528 C74.3214132,78.3279288 72.8672986,79.1386048 71.4670401,79.8952357 C71.5296346,80.3068148 71.5656139,80.7220285 71.5747523,81.1382722 C71.5758343,82.1137107 71.4119389,83.0822592 71.0900474,84.0026607 C74.5906937,85.3537873 78.145196,86.5968238 81.5381301,87.6777251 Z" id="Shape" fill="#03A9F4"></path>
                </g>
            </g>
        </g>
    </g>
</svg>