<?xml version="1.0" encoding="utf-8"?>
<!-- Generator: Adobe Illustrator 24.0.1, SVG Export Plug-In . SVG Version: 6.00 Build 0)  -->
<svg version="1.1" id="Layer_1" xmlns="http://www.w3.org/2000/svg" xmlns:xlink="http://www.w3.org/1999/xlink" x="0px" y="0px"
	 viewBox="0 0 313.98 378.32" style="enable-background:new 0 0 313.98 378.32;" xml:space="preserve">
<style type="text/css">
	.st0{opacity:0.24;}
	.st1{fill:#191A78;}
	.st2{fill:#FFFFFF;}
	.st3{fill:none;stroke:#411DDB;stroke-miterlimit:10;}
	.st4{fill:none;stroke:url(#SVGID_1_);stroke-width:6;stroke-linecap:round;stroke-linejoin:round;stroke-miterlimit:10;}
	.st5{fill:none;stroke:url(#SVGID_2_);stroke-width:6;stroke-linecap:round;stroke-linejoin:round;stroke-miterlimit:10;}
	.st6{fill:none;stroke:url(#SVGID_3_);stroke-width:6;stroke-linecap:round;stroke-linejoin:round;stroke-miterlimit:10;}
	.st7{fill:none;stroke:url(#SVGID_4_);stroke-width:6;stroke-linecap:round;stroke-linejoin:round;stroke-miterlimit:10;}
	.st8{fill:none;stroke:url(#SVGID_5_);stroke-width:6;stroke-linecap:round;stroke-linejoin:round;stroke-miterlimit:10;}
	.st9{fill:none;stroke:url(#SVGID_6_);stroke-width:6;stroke-linecap:round;stroke-linejoin:round;stroke-miterlimit:10;}
	.st10{fill:none;stroke:url(#SVGID_7_);stroke-width:6;stroke-linecap:round;stroke-linejoin:round;stroke-miterlimit:10;}
	.st11{fill:none;stroke:url(#SVGID_8_);stroke-width:6;stroke-linecap:round;stroke-linejoin:round;stroke-miterlimit:10;}
	.st12{fill:none;stroke:url(#SVGID_9_);stroke-width:6;stroke-linecap:round;stroke-linejoin:round;stroke-miterlimit:10;}
	.st13{fill:none;stroke:url(#SVGID_10_);stroke-width:6;stroke-linecap:round;stroke-linejoin:round;stroke-miterlimit:10;}
	.st14{fill:none;stroke:url(#SVGID_11_);stroke-width:6;stroke-linecap:round;stroke-linejoin:round;stroke-miterlimit:10;}
	.st15{fill:none;stroke:url(#SVGID_12_);stroke-width:6;stroke-linecap:round;stroke-linejoin:round;stroke-miterlimit:10;}
	.st16{fill:none;stroke:url(#SVGID_13_);stroke-width:6;stroke-linecap:round;stroke-linejoin:round;stroke-miterlimit:10;}
	.st17{fill:none;stroke:url(#SVGID_14_);stroke-width:6;stroke-linecap:round;stroke-linejoin:round;stroke-miterlimit:10;}
	.st18{fill:none;stroke:url(#SVGID_15_);stroke-width:6;stroke-linecap:round;stroke-linejoin:round;stroke-miterlimit:10;}
	.st19{fill:none;stroke:url(#SVGID_16_);stroke-width:6;stroke-linecap:round;stroke-linejoin:round;stroke-miterlimit:10;}
	.st20{fill:none;stroke:url(#SVGID_17_);stroke-width:6;stroke-linecap:round;stroke-linejoin:round;stroke-miterlimit:10;}
	.st21{fill:none;stroke:url(#SVGID_18_);stroke-width:6;stroke-linecap:round;stroke-linejoin:round;stroke-miterlimit:10;}
	.st22{fill:none;stroke:url(#SVGID_19_);stroke-width:6;stroke-linecap:round;stroke-linejoin:round;stroke-miterlimit:10;}
	.st23{fill:none;stroke:url(#SVGID_20_);stroke-width:6;stroke-linecap:round;stroke-linejoin:round;stroke-miterlimit:10;}
	.st24{fill:none;stroke:url(#SVGID_21_);stroke-width:6;stroke-linecap:round;stroke-linejoin:round;stroke-miterlimit:10;}
	.st25{fill:none;stroke:url(#SVGID_22_);stroke-width:6;stroke-linecap:round;stroke-linejoin:round;stroke-miterlimit:10;}
	.st26{fill:none;stroke:url(#SVGID_23_);stroke-width:6;stroke-linecap:round;stroke-linejoin:round;stroke-miterlimit:10;}
	.st27{fill:none;stroke:url(#SVGID_24_);stroke-width:6;stroke-linecap:round;stroke-linejoin:round;stroke-miterlimit:10;}
	.st28{fill:none;stroke:url(#SVGID_25_);stroke-width:6;stroke-linecap:round;stroke-linejoin:round;stroke-miterlimit:10;}
	.st29{fill:none;stroke:url(#SVGID_26_);stroke-width:6;stroke-linecap:round;stroke-linejoin:round;stroke-miterlimit:10;}
	.st30{fill:none;stroke:url(#SVGID_27_);stroke-width:6;stroke-linecap:round;stroke-linejoin:round;stroke-miterlimit:10;}
	.st31{fill:url(#SVGID_28_);}
	.st32{opacity:0.39;}
	.st33{opacity:0.7;fill:url(#SVGID_29_);}
	.st34{opacity:0.7;fill:url(#SVGID_30_);}
	.st35{fill:url(#SVGID_31_);stroke:#E500E8;stroke-width:0.5;stroke-linecap:round;stroke-linejoin:round;stroke-miterlimit:10;}
	.st36{opacity:0.4;}
	.st37{opacity:0.7;fill:url(#SVGID_32_);}
	.st38{opacity:0.7;fill:url(#SVGID_33_);}
	.st39{fill:url(#SVGID_34_);stroke:#E500E8;stroke-width:0.3639;stroke-linecap:round;stroke-linejoin:round;stroke-miterlimit:10;}
	.st40{fill:#B391FF;}
	.st41{fill:#FF00FF;}
	.st42{opacity:0.41;fill:#FFFFFF;}
	.st43{display:none;}
	.st44{display:inline;}
	.st45{display:inline;opacity:0.2;}
	.st46{display:inline;fill:#FFFFFF;}
	.st47{fill:#411DDB;}
	.st48{display:inline;opacity:0.14;}
	.st49{display:inline;fill:#411DDB;}
	.st50{opacity:0.1;fill:#411DDB;}
	.st51{opacity:0.22;fill:#FFFFFF;}
	.st52{opacity:0.39;fill:#FFFFFF;}
	.st53{clip-path:url(#SVGID_44_);}
	.st54{fill:url(#SVGID_45_);}
	.st55{fill:url(#SVGID_46_);}
	.st56{opacity:0.7;}
	.st57{fill:url(#SVGID_47_);}
	.st58{fill:url(#SVGID_48_);}
	.st59{fill:url(#SVGID_49_);}
	.st60{fill:url(#SVGID_50_);}
	.st61{opacity:0.5;fill:url(#SVGID_51_);}
	.st62{opacity:0.5;fill:url(#SVGID_52_);}
	.st63{opacity:0.5;fill:url(#SVGID_53_);}
	.st64{opacity:0.5;fill:url(#SVGID_54_);}
	.st65{opacity:0.5;fill:url(#SVGID_55_);}
	.st66{opacity:0.5;fill:url(#SVGID_56_);}
	.st67{opacity:0.5;fill:url(#SVGID_57_);}
	.st68{opacity:0.5;fill:url(#SVGID_58_);}
	.st69{opacity:0.5;fill:url(#SVGID_59_);}
	.st70{opacity:0.5;fill:url(#SVGID_60_);}
	.st71{opacity:0.5;fill:url(#SVGID_61_);}
	.st72{opacity:0.5;fill:url(#SVGID_62_);}
	.st73{opacity:0.5;fill:url(#SVGID_63_);}
	.st74{opacity:0.5;fill:url(#SVGID_64_);}
	.st75{opacity:0.5;fill:url(#SVGID_65_);}
	.st76{opacity:0.5;fill:url(#SVGID_66_);}
	.st77{opacity:0.5;fill:url(#SVGID_67_);}
	.st78{opacity:0.5;fill:url(#SVGID_68_);}
	.st79{opacity:0.5;fill:url(#SVGID_69_);}
	.st80{opacity:0.5;fill:url(#SVGID_70_);}
	.st81{opacity:0.5;fill:url(#SVGID_71_);}
	.st82{opacity:0.5;fill:url(#SVGID_72_);}
	.st83{opacity:0.5;fill:url(#SVGID_73_);}
	.st84{opacity:0.5;fill:url(#SVGID_74_);}
	.st85{opacity:0.5;fill:url(#SVGID_75_);}
	.st86{opacity:0.5;fill:url(#SVGID_76_);}
	.st87{opacity:0.5;fill:url(#SVGID_77_);}
	.st88{opacity:0.5;fill:url(#SVGID_78_);}
	.st89{opacity:0.5;fill:url(#SVGID_79_);}
	.st90{opacity:0.5;fill:url(#SVGID_80_);}
	.st91{opacity:0.5;fill:url(#SVGID_81_);}
	.st92{opacity:0.5;fill:url(#SVGID_82_);}
	.st93{opacity:0.5;fill:url(#SVGID_83_);}
	.st94{opacity:0.5;fill:url(#SVGID_84_);}
	.st95{opacity:0.5;fill:url(#SVGID_85_);}
	.st96{opacity:0.5;fill:url(#SVGID_86_);}
	.st97{opacity:0.5;fill:url(#SVGID_87_);}
	.st98{opacity:0.5;fill:url(#SVGID_88_);}
	.st99{opacity:0.5;fill:url(#SVGID_89_);}
	.st100{opacity:0.5;fill:url(#SVGID_90_);}
	.st101{opacity:0.5;fill:url(#SVGID_91_);}
	.st102{opacity:0.5;fill:url(#SVGID_92_);}
	.st103{opacity:0.5;fill:url(#SVGID_93_);}
	.st104{opacity:0.5;fill:url(#SVGID_94_);}
	.st105{opacity:0.5;fill:url(#SVGID_95_);}
	.st106{opacity:0.5;fill:url(#SVGID_96_);}
	.st107{opacity:0.5;fill:url(#SVGID_97_);}
	.st108{opacity:0.5;fill:url(#SVGID_98_);}
	.st109{opacity:0.5;fill:url(#SVGID_99_);}
	.st110{opacity:0.5;fill:url(#SVGID_100_);}
	.st111{opacity:0.5;fill:url(#SVGID_101_);}
	.st112{opacity:0.72;fill:#411DDB;}
	.st113{fill:url(#SVGID_102_);}
	.st114{fill:url(#SVGID_103_);}
	.st115{fill:url(#SVGID_104_);}
	.st116{fill:url(#SVGID_105_);}
	.st117{opacity:0.7;fill:url(#SVGID_106_);}
	.st118{opacity:0.7;fill:url(#SVGID_107_);}
	.st119{fill:url(#SVGID_108_);stroke:#E500E8;stroke-width:0.5;stroke-linecap:round;stroke-linejoin:round;stroke-miterlimit:10;}
	.st120{opacity:0.7;fill:url(#SVGID_109_);}
	.st121{opacity:0.7;fill:url(#SVGID_110_);}
	
		.st122{fill:url(#SVGID_111_);stroke:#E500E8;stroke-width:0.3639;stroke-linecap:round;stroke-linejoin:round;stroke-miterlimit:10;}
	.st123{clip-path:url(#SVGID_113_);}
	.st124{fill:url(#SVGID_114_);}
	.st125{fill:url(#SVGID_115_);}
	.st126{fill:url(#SVGID_116_);}
	.st127{fill:url(#SVGID_117_);}
	.st128{fill:url(#SVGID_118_);}
	.st129{fill:url(#SVGID_119_);}
	.st130{opacity:0.5;fill:url(#SVGID_120_);}
	.st131{opacity:0.5;fill:url(#SVGID_121_);}
	.st132{opacity:0.5;fill:url(#SVGID_122_);}
	.st133{opacity:0.5;fill:url(#SVGID_123_);}
	.st134{opacity:0.5;fill:url(#SVGID_124_);}
	.st135{opacity:0.5;fill:url(#SVGID_125_);}
	.st136{opacity:0.5;fill:url(#SVGID_126_);}
	.st137{opacity:0.5;fill:url(#SVGID_127_);}
	.st138{opacity:0.5;fill:url(#SVGID_128_);}
	.st139{opacity:0.5;fill:url(#SVGID_129_);}
	.st140{opacity:0.5;fill:url(#SVGID_130_);}
	.st141{opacity:0.5;fill:url(#SVGID_131_);}
	.st142{opacity:0.5;fill:url(#SVGID_132_);}
	.st143{opacity:0.5;fill:url(#SVGID_133_);}
	.st144{opacity:0.5;fill:url(#SVGID_134_);}
	.st145{opacity:0.5;fill:url(#SVGID_135_);}
	.st146{opacity:0.5;fill:url(#SVGID_136_);}
	.st147{opacity:0.5;fill:url(#SVGID_137_);}
	.st148{opacity:0.5;fill:url(#SVGID_138_);}
	.st149{opacity:0.5;fill:url(#SVGID_139_);}
	.st150{opacity:0.5;fill:url(#SVGID_140_);}
	.st151{opacity:0.5;fill:url(#SVGID_141_);}
	.st152{opacity:0.5;fill:url(#SVGID_142_);}
	.st153{opacity:0.5;fill:url(#SVGID_143_);}
	.st154{opacity:0.5;fill:url(#SVGID_144_);}
	.st155{opacity:0.5;fill:url(#SVGID_145_);}
	.st156{opacity:0.5;fill:url(#SVGID_146_);}
	.st157{opacity:0.5;fill:url(#SVGID_147_);}
	.st158{opacity:0.5;fill:url(#SVGID_148_);}
	.st159{opacity:0.5;fill:url(#SVGID_149_);}
	.st160{opacity:0.5;fill:url(#SVGID_150_);}
	.st161{opacity:0.5;fill:url(#SVGID_151_);}
	.st162{opacity:0.5;fill:url(#SVGID_152_);}
	.st163{opacity:0.5;fill:url(#SVGID_153_);}
	.st164{opacity:0.5;fill:url(#SVGID_154_);}
	.st165{opacity:0.5;fill:url(#SVGID_155_);}
	.st166{opacity:0.5;fill:url(#SVGID_156_);}
	.st167{opacity:0.5;fill:url(#SVGID_157_);}
	.st168{opacity:0.5;fill:url(#SVGID_158_);}
	.st169{opacity:0.5;fill:url(#SVGID_159_);}
	.st170{opacity:0.5;fill:url(#SVGID_160_);}
	.st171{opacity:0.5;fill:url(#SVGID_161_);}
	.st172{opacity:0.5;fill:url(#SVGID_162_);}
	.st173{opacity:0.5;fill:url(#SVGID_163_);}
	.st174{opacity:0.5;fill:url(#SVGID_164_);}
	.st175{opacity:0.5;fill:url(#SVGID_165_);}
	.st176{opacity:0.5;fill:url(#SVGID_166_);}
	.st177{opacity:0.5;fill:url(#SVGID_167_);}
	.st178{opacity:0.5;fill:url(#SVGID_168_);}
	.st179{opacity:0.5;fill:url(#SVGID_169_);}
	.st180{opacity:0.5;fill:url(#SVGID_170_);}
	.st181{fill:url(#SVGID_171_);}
	.st182{fill:#CBCBCB;}
	.st183{fill:#F1F1F1;}
	.st184{fill:#E5E5E5;}
	.st185{fill:url(#SVGID_172_);}
	.st186{fill:url(#SVGID_173_);}
	.st187{fill:url(#SVGID_174_);}
	.st188{fill:url(#SVGID_175_);}
	.st189{fill:url(#SVGID_176_);}
	.st190{fill:url(#SVGID_177_);}
	.st191{fill:url(#SVGID_178_);}
	.st192{fill:url(#SVGID_179_);}
	.st193{fill:url(#SVGID_180_);}
	.st194{fill:url(#SVGID_181_);}
	.st195{opacity:0.5;fill:#22100D;}
	.st196{opacity:0.79;fill:url(#SVGID_182_);}
	.st197{opacity:0.79;fill:url(#SVGID_183_);}
	.st198{opacity:0.18;}
	.st199{fill:none;}
	.st200{opacity:0.81;fill:#411DDB;}
	.st201{opacity:0.3;}
	.st202{fill:#FFFFFF;stroke:#411DDB;stroke-width:0.5;stroke-miterlimit:10;}
	.st203{fill:url(#SVGID_184_);}
	.st204{fill:url(#SVGID_185_);}
	.st205{fill:url(#SVGID_186_);}
	.st206{fill:url(#SVGID_187_);}
	.st207{fill:url(#SVGID_188_);}
	.st208{fill:url(#SVGID_189_);}
	.st209{fill:url(#SVGID_190_);}
	.st210{fill:url(#SVGID_191_);}
	.st211{fill:url(#SVGID_192_);}
	.st212{fill:url(#SVGID_193_);}
	.st213{fill:url(#SVGID_194_);}
	.st214{opacity:0.79;fill:url(#SVGID_195_);}
	.st215{opacity:0.79;fill:url(#SVGID_196_);}
	.st216{opacity:0.21;}
	.st217{opacity:0.93;}
	.st218{opacity:0.09;fill:#411DDB;}
	.st219{display:none;opacity:0.5;}
	.st220{display:inline;fill:none;stroke:#FFB435;stroke-width:0.75;stroke-miterlimit:10;}
	.st221{fill:url(#SVGID_199_);}
	.st222{fill:url(#SVGID_200_);}
	.st223{opacity:0.56;fill:none;stroke:url(#SVGID_201_);stroke-miterlimit:10;}
	.st224{fill:none;stroke:url(#SVGID_202_);stroke-miterlimit:10;}
	.st225{fill:none;stroke:url(#SVGID_203_);stroke-miterlimit:10;}
	.st226{fill:none;stroke:url(#SVGID_204_);stroke-miterlimit:10;}
	.st227{fill:url(#SVGID_205_);}
	.st228{fill:url(#SVGID_206_);}
	.st229{fill:url(#SVGID_207_);}
	.st230{fill:url(#SVGID_208_);}
	.st231{fill:url(#SVGID_209_);}
	.st232{fill:url(#SVGID_210_);}
	.st233{fill:url(#SVGID_211_);}
	.st234{fill:url(#SVGID_212_);}
	.st235{fill:url(#SVGID_213_);}
	.st236{opacity:0.82;}
	.st237{fill:none;stroke:#FFB435;stroke-width:0.5;stroke-miterlimit:10;}
	.st238{fill:url(#SVGID_216_);}
	.st239{fill:url(#SVGID_217_);}
	.st240{opacity:0.56;fill:none;stroke:url(#SVGID_218_);stroke-miterlimit:10;}
	.st241{fill:none;stroke:url(#SVGID_219_);stroke-miterlimit:10;}
	.st242{fill:none;stroke:url(#SVGID_220_);stroke-miterlimit:10;}
	.st243{fill:none;stroke:url(#SVGID_221_);stroke-miterlimit:10;}
	.st244{fill:url(#SVGID_222_);}
	.st245{fill:url(#SVGID_223_);}
	.st246{fill:url(#SVGID_224_);}
	.st247{fill:url(#SVGID_225_);}
	.st248{fill:url(#SVGID_226_);}
	.st249{fill:url(#SVGID_227_);}
	.st250{fill:url(#SVGID_228_);}
	.st251{fill:url(#SVGID_229_);}
	.st252{fill:url(#SVGID_230_);}
	.st253{fill:url(#SVGID_231_);}
	.st254{fill:url(#SVGID_232_);}
	.st255{opacity:0.29;}
	.st256{fill:url(#SVGID_233_);}
	.st257{opacity:0.7;fill:url(#SVGID_234_);}
	.st258{opacity:0.7;fill:url(#SVGID_235_);}
	.st259{fill:url(#SVGID_236_);stroke:#E500E8;stroke-width:0.5;stroke-linecap:round;stroke-linejoin:round;stroke-miterlimit:10;}
	.st260{opacity:0.7;fill:url(#SVGID_237_);}
	.st261{opacity:0.7;fill:url(#SVGID_238_);}
	.st262{fill:url(#SVGID_239_);stroke:#E500E8;stroke-width:0.5;stroke-linecap:round;stroke-linejoin:round;stroke-miterlimit:10;}
	.st263{opacity:0.67;}
	.st264{opacity:0.53;}
	.st265{opacity:0.7;fill:url(#SVGID_240_);}
	.st266{opacity:0.7;fill:url(#SVGID_241_);}
	.st267{fill:url(#SVGID_242_);stroke:#E500E8;stroke-width:0.5;stroke-linecap:round;stroke-linejoin:round;stroke-miterlimit:10;}
	.st268{clip-path:url(#SVGID_244_);}
	.st269{fill:url(#SVGID_245_);}
	.st270{fill:url(#SVGID_246_);}
	.st271{fill:url(#SVGID_247_);}
	.st272{fill:url(#SVGID_248_);}
	.st273{fill:url(#SVGID_249_);}
	.st274{fill:url(#SVGID_250_);}
	.st275{opacity:0.5;fill:url(#SVGID_251_);}
	.st276{opacity:0.5;fill:url(#SVGID_252_);}
	.st277{opacity:0.5;fill:url(#SVGID_253_);}
	.st278{opacity:0.5;fill:url(#SVGID_254_);}
	.st279{opacity:0.5;fill:url(#SVGID_255_);}
	.st280{opacity:0.5;fill:url(#SVGID_256_);}
	.st281{opacity:0.5;fill:url(#SVGID_257_);}
	.st282{opacity:0.5;fill:url(#SVGID_258_);}
	.st283{opacity:0.5;fill:url(#SVGID_259_);}
	.st284{opacity:0.5;fill:url(#SVGID_260_);}
	.st285{opacity:0.5;fill:url(#SVGID_261_);}
	.st286{opacity:0.5;fill:url(#SVGID_262_);}
	.st287{opacity:0.5;fill:url(#SVGID_263_);}
	.st288{opacity:0.5;fill:url(#SVGID_264_);}
	.st289{opacity:0.5;fill:url(#SVGID_265_);}
	.st290{opacity:0.5;fill:url(#SVGID_266_);}
	.st291{opacity:0.5;fill:url(#SVGID_267_);}
	.st292{opacity:0.5;fill:url(#SVGID_268_);}
	.st293{opacity:0.5;fill:url(#SVGID_269_);}
	.st294{opacity:0.5;fill:url(#SVGID_270_);}
	.st295{opacity:0.5;fill:url(#SVGID_271_);}
	.st296{opacity:0.5;fill:url(#SVGID_272_);}
	.st297{opacity:0.5;fill:url(#SVGID_273_);}
	.st298{opacity:0.5;fill:url(#SVGID_274_);}
	.st299{opacity:0.5;fill:url(#SVGID_275_);}
	.st300{opacity:0.5;fill:url(#SVGID_276_);}
	.st301{opacity:0.5;fill:url(#SVGID_277_);}
	.st302{opacity:0.5;fill:url(#SVGID_278_);}
	.st303{opacity:0.5;fill:url(#SVGID_279_);}
	.st304{opacity:0.5;fill:url(#SVGID_280_);}
	.st305{opacity:0.5;fill:url(#SVGID_281_);}
	.st306{opacity:0.5;fill:url(#SVGID_282_);}
	.st307{opacity:0.5;fill:url(#SVGID_283_);}
	.st308{opacity:0.5;fill:url(#SVGID_284_);}
	.st309{opacity:0.5;fill:url(#SVGID_285_);}
	.st310{opacity:0.5;fill:url(#SVGID_286_);}
	.st311{opacity:0.5;fill:url(#SVGID_287_);}
	.st312{opacity:0.5;fill:url(#SVGID_288_);}
	.st313{opacity:0.5;fill:url(#SVGID_289_);}
	.st314{opacity:0.5;fill:url(#SVGID_290_);}
	.st315{opacity:0.5;fill:url(#SVGID_291_);}
	.st316{opacity:0.5;fill:url(#SVGID_292_);}
	.st317{opacity:0.5;fill:url(#SVGID_293_);}
	.st318{opacity:0.5;fill:url(#SVGID_294_);}
	.st319{opacity:0.5;fill:url(#SVGID_295_);}
	.st320{opacity:0.5;fill:url(#SVGID_296_);}
	.st321{opacity:0.5;fill:url(#SVGID_297_);}
	.st322{opacity:0.5;fill:url(#SVGID_298_);}
	.st323{opacity:0.5;fill:url(#SVGID_299_);}
	.st324{opacity:0.5;fill:url(#SVGID_300_);}
	.st325{opacity:0.5;fill:url(#SVGID_301_);}
	.st326{fill:#03A9F4;}
	.st327{opacity:0.5;}
	.st328{fill:url(#SVGID_302_);}
	.st329{fill:url(#SVGID_303_);}
	.st330{fill:url(#SVGID_304_);}
	.st331{fill:url(#SVGID_305_);}
	.st332{fill:url(#SVGID_306_);}
	.st333{fill:url(#SVGID_307_);}
	.st334{fill:url(#SVGID_308_);}
	.st335{fill:url(#SVGID_309_);}
	.st336{fill:url(#SVGID_310_);}
	.st337{fill:url(#SVGID_311_);}
	.st338{fill:url(#SVGID_312_);}
	.st339{fill:url(#SVGID_313_);}
	.st340{opacity:0.79;fill:url(#SVGID_314_);}
	.st341{opacity:0.79;fill:url(#SVGID_315_);}
</style>
<g>
	<path class="st326" d="M145.81,110.98c0-13.13-10.68-23.81-23.81-23.81s-23.81,10.68-23.81,23.81s10.68,23.81,23.81,23.81
		S145.81,124.11,145.81,110.98z M121.99,99.34c6.42,0,11.64,5.22,11.64,11.64s-5.22,11.64-11.64,11.64
		c-6.42,0-11.64-5.22-11.64-11.64S115.57,99.34,121.99,99.34z"/>
	<path class="st326" d="M196.6,75.99c-0.56-0.17-4.78-1.46-10.05-2.67c1.66-5.73,2.86-10.49,2.87-10.55
		c7.02-28.37,4.19-47.86-7.96-54.87c-12.2-7.04-30.6,0.36-51.84,20.87c-1.88,1.93-11.37,11.67-14.1,14.98l-0.06,0.07
		c-6.63,7.98-15.29,19.94-18.24,24.04c-8.86,0.16-21.05,2.06-28.14,3.3c-1.95-6.43-2.91-10.74-2.92-10.78l-0.05-0.2
		c-5.57-22-4.82-38.73,1.92-42.62c6.68-3.86,21.47,3.83,37.67,19.57c1.17,1.13,2.71,1.76,4.33,1.72c1.63-0.02,3.15-0.68,4.28-1.85
		c2.34-2.41,2.28-6.27-0.13-8.61C92.73,7.55,74.17-0.04,61.94,7.02c-12.27,7.09-15,26.98-7.67,55.99c0.19,0.85,4.68,21,14.16,39.68
		c1.61,3.54,3.02,6.53,3.83,8.22c-4.25,7.68-8.79,19.08-11.33,25.78c-3.27-0.81-7.44-1.84-10.42-2.58
		c-21.61-6.13-36.12-15.4-36.12-23.07c0-7.81,14.03-16.85,35.75-23.05c1.56-0.45,2.86-1.47,3.65-2.9c0.79-1.42,0.98-3.07,0.53-4.63
		c-0.92-3.23-4.29-5.11-7.53-4.19c-28.75,8.2-44.59,20.54-44.59,34.76c0,14.2,16.03,26.57,45.16,34.83
		c4.31,1.08,14.35,3.58,16.04,3.95l0.09,0.02c10.11,2.13,27.71,3.79,33.66,4.31c4.48,7.51,12.06,16.93,16.58,22.33
		c-3.72,4.23-6.76,7.62-7.33,8.25c-16.57,16.67-31.87,24.79-39,20.67c-7.08-4.09-7.59-21.73-1.31-44.94
		c0.88-3.24-1.05-6.59-4.29-7.47c-3.24-0.88-6.59,1.05-7.47,4.29c-8.24,30.47-5.77,51.31,6.98,58.67c3.09,1.78,6.58,2.68,10.4,2.68
		c11.92,0,26.93-8.79,43.42-25.41c0.07-0.07,0.14-0.14,0.2-0.21c0.03-0.03,2.88-3.19,6.6-7.41c2.66,2.81,5.79,6.1,7.04,7.37
		l0.65,0.65c16.12,15.74,30.73,24.06,42.25,24.06c3.75,0,7.17-0.88,10.18-2.62c12.46-7.19,15.11-27.37,7.47-56.81
		c-0.41-1.57-1.41-2.9-2.81-3.72c-1.4-0.82-3.04-1.05-4.62-0.64c-1.57,0.41-2.9,1.41-3.72,2.81c-0.82,1.4-1.05,3.04-0.65,4.62
		c5.78,22.28,5.09,39.24-1.77,43.2c-6.83,3.94-21.8-3.88-38.13-19.91c-0.83-0.84-3.75-3.9-7.86-8.25c3.65-4.28,6.27-7.5,7.81-9.6
		c0.96-1.31,1.36-2.92,1.11-4.53c-0.25-1.61-1.1-3.02-2.42-3.98c-2.71-1.99-6.52-1.4-8.51,1.31c-1.22,1.66-3.29,4.21-6.14,7.59
		c-2.49-3.02-5.73-7.05-8.7-11.08c27.42,0.58,55.27-2.72,82.75-9.81c0.11-0.01,0.23-0.02,0.34-0.05l0.95-0.26
		c0.07-0.02,0.13-0.04,0.12-0.04c0,0,0,0,0,0c2.52-0.7,4.84-1.4,6.9-2.07c25.04-8.18,38.27-19.51,38.27-32.78
		C242.45,96.56,226.17,84.12,196.6,75.99z M182.55,85.64c0.08-0.22,0.17-0.45,0.25-0.68c5.54,1.23,10.08,2.63,10.3,2.7l0.18,0.05
		c22.47,6.16,36.99,15.32,36.99,23.33c0,7.06-11.45,15.18-29.87,21.2c-1.98,0.65-4.2,1.31-6.56,1.97
		c-3.34,0.88-6.94,1.74-10.96,2.63c-3.66-9.63-9.24-21.65-11.22-25.86C175.87,103.33,180.27,91.86,182.55,85.64z M165.12,125.98
		c1.72,3.86,3.85,8.77,5.63,13.3c-4.97,0.9-9.88,1.66-14.61,2.27C159.27,136.43,162.28,131.2,165.12,125.98z M170.64,82.73
		c-1.4,3.77-3.31,8.72-5.36,13.45c-2.79-5.11-5.72-10.19-8.74-15.13C161.95,81.59,166.68,82.15,170.64,82.73z M103.57,143.51
		c-9.6-14.56-16.64-28.07-18.9-32.54c7.82-15.51,15.98-28.13,18.71-32.25c17.26-0.91,32.26-0.33,37.2-0.08
		c9.58,14.54,16.47,27.88,18.68,32.29c-7.67,15.22-15.77,28.01-18.48,32.18c-9.49,0.72-18.88,0.98-27.91,0.77h0
		C109.93,143.81,106.8,143.69,103.57,143.51z M177.59,59.83c-0.01,0.05-1.31,5.23-3.06,11.17c-10.07-1.6-23.05-2.69-27.62-3.05
		c-2-3.34-4.8-7.36-8.34-11.97c-0.99-1.29-2.42-2.12-4.04-2.33c-1.61-0.21-3.21,0.22-4.5,1.21c-2.66,2.05-3.17,5.88-1.12,8.54
		c0.71,0.92,1.39,1.83,2.04,2.71c-4.43-0.09-10.5-0.13-17.4,0.03c3.35-4.51,7.67-10.21,11.25-14.52l0.06-0.07
		c1.93-2.37,10.29-11.03,13.33-14.14c15.91-15.36,30.5-22.8,37.16-18.96C181.99,22.28,182.86,38.52,177.59,59.83z M87.53,140.98
		c-5.59-0.6-10.45-1.21-14.49-1.82c1.47-3.81,3.47-8.81,5.58-13.55C81.47,130.82,84.46,135.98,87.53,140.98z M78.77,95.99
		c-2.26-5.01-4.14-9.43-5.62-13.16c4.01-0.67,9.31-1.49,14.47-2.07C84.54,85.77,81.57,90.88,78.77,95.99z"/>
	<path class="st326" d="M154.93,167.03L154.93,167.03c-2.9,1.69-3.9,5.42-2.21,8.32l9.88,17.04c1.09,1.87,3.11,3.03,5.27,3.03
		c1.07,0,2.12-0.28,3.05-0.82c2.9-1.68,3.9-5.42,2.21-8.32l-9.88-17.04C161.57,166.34,157.83,165.35,154.93,167.03z"/>
	<path class="st326" d="M74.29,194.6c0.93,0.54,1.98,0.82,3.05,0.82c2.17,0,4.19-1.16,5.27-3.03l9.88-17.04
		c1.68-2.9,0.69-6.64-2.21-8.32c-2.9-1.68-6.64-0.69-8.32,2.21l-9.88,17.04C70.39,189.18,71.38,192.92,74.29,194.6z"/>
	<path class="st326" d="M74.58,28.29L74.58,28.29c-2.91,1.69-3.9,5.42-2.21,8.32l9.88,17.04c1.09,1.87,3.11,3.03,5.27,3.03
		c1.07,0,2.12-0.28,3.05-0.82c2.9-1.68,3.9-5.42,2.21-8.32L82.91,30.5C81.22,27.6,77.49,26.61,74.58,28.29z"/>
	<path class="st326" d="M194.82,117.15l19.71,0.05c3.35,0,6.08-2.73,6.09-6.08c0.01-3.36-2.72-6.1-6.08-6.1l-19.71-0.05
		c-3.35,0-6.08,2.73-6.09,6.08c0,1.63,0.63,3.16,1.77,4.31S193.19,117.15,194.82,117.15z"/>
	<path class="st326" d="M171.22,28.29c-2.9-1.68-6.64-0.69-8.32,2.21l-9.88,17.04c-1.68,2.9-0.69,6.64,2.21,8.32
		c0.93,0.54,1.98,0.82,3.05,0.82c2.17,0,4.19-1.16,5.27-3.03l9.88-17.04C175.11,33.71,174.12,29.98,171.22,28.29z"/>
	<path class="st326" d="M48.64,104.95l-19.71-0.05c-3.35,0-6.08,2.73-6.09,6.08c0,1.63,0.63,3.16,1.77,4.31
		c1.15,1.15,2.68,1.79,4.3,1.79l19.71,0.05c3.35,0,6.08-2.73,6.09-6.08C54.72,107.7,52,104.96,48.64,104.95z"/>
</g>
<path class="st326" d="M45.85,302.78L32.89,284.2c-0.82,0.09-1.63,0.09-2.45,0.09H16.12v18.49H4.33v-63.46h26.11
	c16.68,0,27.02,8.52,27.02,22.57c0,9.61-4.9,16.68-13.51,20.04l14.6,20.85H45.85z M29.9,249.3H16.12v25.29H29.9
	c10.33,0,15.68-4.71,15.68-12.69C45.58,253.92,40.23,249.3,29.9,249.3z"/>
<path class="st326" d="M118.2,292.9v9.88H70.6v-63.46h46.33v9.88H82.39v16.5h30.64v9.7H82.39v17.5H118.2z"/>
<path class="st326" d="M172.51,288.1h-31.73l-6.26,14.69h-12.15l28.56-63.46h11.6l28.65,63.46h-12.33L172.51,288.1z M168.61,278.85
	l-11.97-27.74l-11.88,27.74H168.61z"/>
<path class="st326" d="M193.81,271.06c0-18.95,14.5-32.64,34-32.64c10.33,0,19.22,3.72,25.11,10.61l-7.62,7.16
	c-4.62-4.99-10.33-7.43-16.95-7.43c-13.15,0-22.66,9.25-22.66,22.3c0,13.05,9.52,22.3,22.66,22.3c6.62,0,12.33-2.45,16.95-7.52
	l7.62,7.25c-5.89,6.89-14.78,10.61-25.2,10.61C208.32,303.69,193.81,290,193.81,271.06z"/>
<path class="st326" d="M276.4,249.3h-21.03v-9.97h53.85v9.97h-21.03v53.49H276.4V249.3z"/>
<path class="st326" d="M3.21,341.5c0-18.95,14.5-32.64,34-32.64c10.33,0,19.22,3.72,25.11,10.61l-7.62,7.16
	c-4.62-4.99-10.33-7.43-16.95-7.43c-13.15,0-22.66,9.25-22.66,22.3c0,13.05,9.52,22.3,22.66,22.3c6.62,0,12.33-2.45,16.95-7.52
	l7.62,7.25c-5.89,6.89-14.78,10.61-25.2,10.61C17.71,374.14,3.21,360.45,3.21,341.5z"/>
<path class="st326" d="M67.76,341.5c0-18.77,14.5-32.64,34.18-32.64c19.67,0,34.18,13.78,34.18,32.64
	c0,18.86-14.5,32.64-34.18,32.64C82.26,374.14,67.76,360.27,67.76,341.5z M124.24,341.5c0-12.96-9.52-22.3-22.3-22.3
	s-22.3,9.34-22.3,22.3s9.52,22.3,22.3,22.3S124.24,354.46,124.24,341.5z"/>
<path class="st326" d="M205.02,309.77v63.46h-9.7l-34.99-42.97v42.97h-11.69v-63.46h9.7l34.99,42.97v-42.97H205.02z"/>
<path class="st326" d="M233.85,319.65v19.31h30.64v9.97h-30.64v24.3h-11.79v-63.46h46.33v9.88H233.85z"/>
</svg>