<?xml version="1.0" encoding="UTF-8"?>
<svg width="767px" height="294px" viewBox="0 0 767 294" version="1.1" xmlns="http://www.w3.org/2000/svg" xmlns:xlink="http://www.w3.org/1999/xlink">
    <!-- Generator: Sketch 49.3 (51167) - http://www.bohemiancoding.com/sketch -->
    <title>REACTCONF</title>
    <desc>Created with Sketch.</desc>
    <defs></defs>
    <g id="Page-1" stroke="none" stroke-width="1" fill="none" fill-rule="evenodd">
        <g id="Extra-Small-Devices:-Phones---2-Col" transform="translate(0.000000, -234.000000)">
            <g id="Group-3" transform="translate(0.000000, 1.000000)">
                <g id="REACTCONF" transform="translate(-22.000000, 233.000000)">
                    <path d="M553.23284,192.716799 C520.745393,189.87809 439.684481,221.103889 413.505276,145.08957 C365.878047,6.6236543 250.752627,54.2508828 255.483809,136.258031 C260.21499,218.26518 214.480234,263.369111 136.258031,267.154057 C71.5985489,263.369111 44.7885195,220.157652 0,211.326113 L1.57706055,326.766945 L622.308092,326.766945 L621.361856,319.512467 C622.623504,210.064465 586.035699,195.240096 553.23284,192.716799 Z" id="Shape" fill-opacity="0.3" fill="#4A90E2"></path>
                    <path d="M314.150461,203.756223 C336.719923,200.770844 393.318901,218.896004 408.458682,165.90677 C436.214947,69.075252 516.960447,97.4623418 516.960447,153.921109 C516.645035,210.695289 549.763307,239.713203 603.698778,239.713203 C647.541061,234.666609 664.257903,204.702459 693.906641,196.501744 C795.883367,168.295416 876.906641,248.5 876.906641,326.766945 L296.802795,326.766945 C232.458725,298.064443 254.537572,211.641525 314.150461,203.756223 Z" id="Shape" fill-opacity="0.555848053" fill="#4A90E2"></path>
                    <path d="M699.446807,314.150461 L699.446807,363.670162 L6.17099,363.670162 L5.85557789,297.749031 L367.94868,297.433619 C410.213902,296.487383 409.583078,283.555486 437.339344,243.182736 C464.780197,202.494574 525.339322,197.132568 561.611715,243.813561 C595.676223,287.340432 637.310621,261.161227 657.812408,263.999936 C677.998783,266.838645 695.661861,271.569826 699.762219,314.150461 L699.446807,314.150461 Z" id="Shape" fill="#2E54A7"></path>
                    <path d="M364.931811,0 L365.878047,76.0143184 C367.455108,76.9605547 370.293817,76.9605547 371.555465,78.2222032 C372.501701,79.1684395 371.870877,80.4300879 373.76335,82.6379727 C375.34041,84.5304453 380.702416,88.3153907 381.33324,90.5232754 L382.279477,94.3082207 L382.910301,94.3082207 C383.541125,95.5698692 383.856537,97.4623418 382.910301,98.7239903 L371.240053,116.071656 L373.76335,274.723947 L391.111016,276.931832 C393.003488,276.931832 393.949725,277.247244 393.003488,279.770541 L386.064422,297.118207 L343.168375,297.433619 L335.913897,279.770541 C334.96766,277.247244 335.598484,276.931832 337.490957,276.931832 L354.838623,274.723947 L357.36192,116.071656 L345.691672,98.7239903 C344.745436,97.4623418 344.745436,94.3082207 345.691672,94.3082207 L346.322496,94.3082207 L347.268733,90.5232754 C347.899557,88.3153907 353.261563,84.5304453 355.154035,82.6379727 C356.731096,80.4300879 356.100272,79.1684395 357.046508,78.2222032 C358.308156,76.9605547 361.462277,76.9605547 363.039338,76.0143184 L363.670162,0 L364.931811,0 Z" id="Shape" fill="#2196F3"></path>
                    <rect id="Rectangle-path" fill="#FFFFFF" x="354.838623" y="84.2150332" width="2.98537877" height="2.90052345" rx="1.45026173"></rect>
                    <rect id="Rectangle-path" fill="#FFFFFF" x="349.476617" y="94.3082207" width="2.98537877" height="2.90052345" rx="1.45026173"></rect>
                    <rect id="Rectangle-path" fill="#FFFFFF" x="360.200629" y="84.2150332" width="2.98537877" height="2.90052345" rx="1.45026173"></rect>
                    <rect id="Rectangle-path" fill="#FFFFFF" x="354.838623" y="94.3082207" width="2.98537877" height="2.90052345" rx="1.45026173"></rect>
                    <rect id="Rectangle-path" fill="#FFFFFF" x="365.562635" y="84.2150332" width="2.98537877" height="2.90052345" rx="1.45026173"></rect>
                    <rect id="Rectangle-path" fill="#FFFFFF" x="360.200629" y="94.3082207" width="2.98537877" height="2.90052345" rx="1.45026173"></rect>
                    <rect id="Rectangle-path" fill="#FFFFFF" x="370.609229" y="94.3082207" width="2.98537877" height="2.90052345" rx="1.45026173"></rect>
                    <rect id="Rectangle-path" fill="#FFFFFF" x="370.609229" y="84.2150332" width="2.98537877" height="2.90052345" rx="1.45026173"></rect>
                    <rect id="Rectangle-path" fill="#FFFFFF" x="365.562635" y="94.3082207" width="2.98537877" height="2.90052345" rx="1.45026173"></rect>
                    <rect id="Rectangle-path" fill="#FFFFFF" x="375.971235" y="94.3082207" width="2.98537877" height="2.90052345" rx="1.45026173"></rect>
                    <polygon id="Shape" fill="#2196F3" points="537.777647 297.118207 481.318879 245.075209 481.318879 278.193481 478.48017 278.193481 478.48017 242.551912 449.146844 215.426471 449.146844 222.996361 418.551869 222.996361 418.551869 268.415705 414.1361 268.415705 414.1361 205.648695 407.512445 205.648695 406.250797 201.86375 389.533955 201.86375 389.533955 206.27952 381.648652 206.27952 381.648652 243.498149 378.179119 243.498149 378.179119 297.118207"></polygon>
                    <polygon id="Shape" fill="#2196F3" points="568.202872 297.118207 568.202872 280.085953 556.848036 280.085953 556.848036 253.591336 552.116855 253.591336 552.116855 249.175566 547.701085 249.175566 547.701085 253.591336 543.600728 253.591336 543.600728 249.175566 534.769189 249.175566 534.769189 253.591336 530.668831 253.591336 530.668831 233.089549 523.414353 233.089549 523.414353 229.620016 510.797868 229.620016 510.797868 233.089549 503.54339 233.089549 503.54339 260.530402 543.600728 297.118207"></polygon>
                    <rect id="Rectangle-path" fill="#FFFFFF" x="523.414353" y="237.505318" width="4.45948565" height="4.50175087"></rect>
                    <rect id="Rectangle-path" fill="#FFFFFF" x="403.412088" y="212.903174" width="4.45948565" height="4.50175087"></rect>
                    <rect id="Rectangle-path" fill="#FFFFFF" x="535.084601" y="257.060869" width="4.45948565" height="4.50175087"></rect>
                    <rect id="Rectangle-path" fill="#FFFFFF" x="420.759754" y="278.193481" width="4.45948565" height="4.50175087"></rect>
                    <rect id="Rectangle-path" fill="#FFFFFF" x="420.759754" y="261.792051" width="4.45948565" height="4.50175087"></rect>
                    <rect id="Rectangle-path" fill="#FFFFFF" x="420.759754" y="245.075209" width="4.45948565" height="4.50175087"></rect>
                    <rect id="Rectangle-path" fill="#FFFFFF" x="420.759754" y="236.874494" width="4.45948565" height="4.50175087"></rect>
                    <rect id="Rectangle-path" fill="#FFFFFF" x="420.759754" y="228.673779" width="4.45948565" height="4.50175087"></rect>
                    <rect id="Rectangle-path" fill="#FFFFFF" x="427.69882" y="278.193481" width="4.45948565" height="4.50175087"></rect>
                    <rect id="Rectangle-path" fill="#FFFFFF" x="427.69882" y="269.992766" width="4.45948565" height="4.50175087"></rect>
                    <rect id="Rectangle-path" fill="#FFFFFF" x="427.69882" y="261.792051" width="4.45948565" height="4.50175087"></rect>
                    <rect id="Rectangle-path" fill="#FFFFFF" x="427.69882" y="253.591336" width="4.45948565" height="4.50175087"></rect>
                    <rect id="Rectangle-path" fill="#FFFFFF" x="427.69882" y="236.874494" width="4.45948565" height="4.50175087"></rect>
                    <rect id="Rectangle-path" fill="#FFFFFF" x="434.637887" y="286.394195" width="4.45948565" height="4.50175087"></rect>
                    <rect id="Rectangle-path" fill="#FFFFFF" x="434.637887" y="269.992766" width="4.45948565" height="4.50175087"></rect>
                    <rect id="Rectangle-path" fill="#FFFFFF" x="434.637887" y="253.591336" width="4.45948565" height="4.50175087"></rect>
                    <rect id="Rectangle-path" fill="#FFFFFF" x="434.637887" y="245.075209" width="4.45948565" height="4.50175087"></rect>
                    <rect id="Rectangle-path" fill="#FFFFFF" x="434.637887" y="236.874494" width="4.45948565" height="4.50175087"></rect>
                    <rect id="Rectangle-path" fill="#FFFFFF" x="434.637887" y="228.673779" width="4.45948565" height="4.50175087"></rect>
                    <rect id="Rectangle-path" fill="#FFFFFF" x="441.576953" y="286.394195" width="4.45948565" height="4.50175087"></rect>
                    <rect id="Rectangle-path" fill="#FFFFFF" x="441.576953" y="278.193481" width="4.45948565" height="4.50175087"></rect>
                    <rect id="Rectangle-path" fill="#FFFFFF" x="441.576953" y="269.992766" width="4.45948565" height="4.50175087"></rect>
                    <rect id="Rectangle-path" fill="#FFFFFF" x="441.576953" y="253.591336" width="4.45948565" height="4.50175087"></rect>
                    <rect id="Rectangle-path" fill="#FFFFFF" x="441.576953" y="236.874494" width="4.45948565" height="4.50175087"></rect>
                    <rect id="Rectangle-path" fill="#FFFFFF" x="448.831432" y="278.193481" width="4.45948565" height="4.50175087"></rect>
                    <rect id="Rectangle-path" fill="#FFFFFF" x="448.831432" y="261.792051" width="4.45948565" height="4.50175087"></rect>
                    <rect id="Rectangle-path" fill="#FFFFFF" x="448.831432" y="253.591336" width="4.45948565" height="4.50175087"></rect>
                    <rect id="Rectangle-path" fill="#FFFFFF" x="448.831432" y="245.075209" width="4.45948565" height="4.50175087"></rect>
                    <rect id="Rectangle-path" fill="#FFFFFF" x="448.831432" y="236.874494" width="4.45948565" height="4.50175087"></rect>
                    <rect id="Rectangle-path" fill="#FFFFFF" x="455.770498" y="286.394195" width="4.45948565" height="4.50175087"></rect>
                    <rect id="Rectangle-path" fill="#FFFFFF" x="455.770498" y="278.193481" width="4.45948565" height="4.50175087"></rect>
                    <rect id="Rectangle-path" fill="#FFFFFF" x="455.770498" y="269.992766" width="4.45948565" height="4.50175087"></rect>
                    <rect id="Rectangle-path" fill="#FFFFFF" x="455.770498" y="261.792051" width="4.45948565" height="4.50175087"></rect>
                    <rect id="Rectangle-path" fill="#FFFFFF" x="455.770498" y="245.075209" width="4.45948565" height="4.50175087"></rect>
                    <rect id="Rectangle-path" fill="#FFFFFF" x="455.770498" y="228.673779" width="4.45948565" height="4.50175087"></rect>
                    <rect id="Rectangle-path" fill="#FFFFFF" x="462.709565" y="286.394195" width="4.45948565" height="4.50175087"></rect>
                    <rect id="Rectangle-path" fill="#FFFFFF" x="462.709565" y="278.193481" width="4.45948565" height="4.50175087"></rect>
                    <rect id="Rectangle-path" fill="#FFFFFF" x="462.709565" y="269.992766" width="4.45948565" height="4.50175087"></rect>
                    <rect id="Rectangle-path" fill="#FFFFFF" x="462.709565" y="253.591336" width="4.45948565" height="4.50175087"></rect>
                    <rect id="Rectangle-path" fill="#FFFFFF" x="462.709565" y="236.874494" width="4.45948565" height="4.50175087"></rect>
                    <rect id="Rectangle-path" fill="#FFFFFF" x="469.648631" y="278.193481" width="4.45948565" height="4.50175087"></rect>
                    <rect id="Rectangle-path" fill="#FFFFFF" x="469.648631" y="261.792051" width="4.45948565" height="4.50175087"></rect>
                    <rect id="Rectangle-path" fill="#FFFFFF" x="469.648631" y="253.591336" width="4.45948565" height="4.50175087"></rect>
                    <rect id="Rectangle-path" fill="#FFFFFF" x="469.648631" y="245.075209" width="4.45948565" height="4.50175087"></rect>
                    <rect id="Rectangle-path" fill="#FFFFFF" x="483.526764" y="278.193481" width="4.45948565" height="4.50175087"></rect>
                    <rect id="Rectangle-path" fill="#FFFFFF" x="483.526764" y="269.992766" width="4.45948565" height="4.50175087"></rect>
                    <rect id="Rectangle-path" fill="#FFFFFF" x="483.526764" y="261.792051" width="4.45948565" height="4.50175087"></rect>
                    <rect id="Rectangle-path" fill="#FFFFFF" x="483.526764" y="253.591336" width="4.45948565" height="4.50175087"></rect>
                    <rect id="Rectangle-path" fill="#FFFFFF" x="490.46583" y="286.394195" width="4.45948565" height="4.50175087"></rect>
                    <rect id="Rectangle-path" fill="#FFFFFF" x="490.46583" y="269.992766" width="4.45948565" height="4.50175087"></rect>
                    <rect id="Rectangle-path" fill="#FFFFFF" x="497.720309" y="286.394195" width="4.45948565" height="4.50175087"></rect>
                    <rect id="Rectangle-path" fill="#FFFFFF" x="511.598442" y="286.394195" width="4.45948565" height="4.50175087"></rect>
                    <rect id="Rectangle-path" fill="#FFFFFF" x="497.720309" y="278.193481" width="4.45948565" height="4.50175087"></rect>
                    <rect id="Rectangle-path" fill="#FFFFFF" x="497.720309" y="269.992766" width="4.45948565" height="4.50175087"></rect>
                    <rect id="Rectangle-path" fill="#FFFFFF" x="518.85292" y="286.394195" width="4.45948565" height="4.50175087"></rect>
                    <rect id="Rectangle-path" fill="#FFFFFF" x="504.659375" y="278.193481" width="4.45948565" height="4.50175087"></rect>
                    <rect id="Rectangle-path" fill="#FFFFFF" x="535.084601" y="264.63076" width="4.45948565" height="4.50175087"></rect>
                    <rect id="Rectangle-path" fill="#FFFFFF" x="538.869546" y="272.831475" width="4.45948565" height="4.50175087"></rect>
                    <rect id="Rectangle-path" fill="#FFFFFF" x="542.339079" y="272.831475" width="4.45948565" height="4.50175087"></rect>
                    <rect id="Rectangle-path" fill="#FFFFFF" x="549.90897" y="272.831475" width="4.45948565" height="4.50175087"></rect>
                    <rect id="Rectangle-path" fill="#FFFFFF" x="549.90897" y="280.401365" width="4.45948565" height="4.50175087"></rect>
                    <rect id="Rectangle-path" fill="#FFFFFF" x="549.90897" y="288.286668" width="4.45948565" height="4.50175087"></rect>
                    <rect id="Rectangle-path" fill="#FFFFFF" x="542.339079" y="288.286668" width="4.45948565" height="4.50175087"></rect>
                    <rect id="Rectangle-path" fill="#FFFFFF" x="535.084601" y="280.401365" width="4.45948565" height="4.50175087"></rect>
                    <rect id="Rectangle-path" fill="#FFFFFF" x="523.414353" y="245.706033" width="4.45948565" height="4.50175087"></rect>
                    <rect id="Rectangle-path" fill="#FFFFFF" x="403.412088" y="221.103889" width="4.45948565" height="4.50175087"></rect>
                    <rect id="Rectangle-path" fill="#FFFFFF" x="507.012923" y="237.505318" width="13.1308269" height="4.50175087"></rect>
                    <rect id="Rectangle-path" fill="#FFFFFF" x="387.32607" y="212.903174" width="13.1308269" height="4.50175087"></rect>
                    <rect id="Rectangle-path" fill="#FFFFFF" x="507.012923" y="245.706033" width="13.1308269" height="4.50175087"></rect>
                    <rect id="Rectangle-path" fill="#FFFFFF" x="387.32607" y="221.103889" width="13.1308269" height="4.50175087"></rect>
                    <rect id="Rectangle-path" fill="#FFFFFF" x="507.012923" y="253.591336" width="13.1308269" height="4.50175087"></rect>
                    <rect id="Rectangle-path" fill="#FFFFFF" x="387.32607" y="228.673779" width="13.1308269" height="4.50175087"></rect>
                </g>
            </g>
        </g>
    </g>
</svg>